<?xml version="1.0" encoding="UTF-8" standalone="no"?>
<!DOCTYPE svg PUBLIC "-//W3C//DTD SVG 1.0//EN" "http://www.w3.org/TR/2001/REC-SVG-20010904/DTD/svg10.dtd">
<!-- Generated by Microsoft Visio 11.0, SVG Export, v1.0 SDF-Markups-1.svg Page-1 -->
<svg xmlns="http://www.w3.org/2000/svg" xmlns:v="http://schemas.microsoft.com/visio/2003/SVGExtensions/" width="5.53181in"
		height="3.76016in" viewBox="0 0 398.29 270.731" xml:space="preserve" color-interpolation-filters="sRGB" class="st8">
	<v:documentProperties v:langID="1033" v:metric="true" v:viewMarkup="false"/>

	<style type="text/css">
	<![CDATA[
		.st1 {fill:url(#grad29-4);stroke:#000000;stroke-linecap:round;stroke-linejoin:round;stroke-width:0.72}
		.st2 {fill:url(#grad34-8);stroke:#000000;stroke-linecap:round;stroke-linejoin:round;stroke-width:0.72}
		.st3 {fill:url(#grad36-14);stroke:#000000;stroke-linecap:round;stroke-linejoin:round;stroke-width:0.72}
		.st4 {marker-end:url(#mrkr13-35);stroke:#4677bf;stroke-linecap:round;stroke-linejoin:round;stroke-width:2.16}
		.st5 {fill:#4677bf;fill-opacity:1;stroke:#4677bf;stroke-opacity:1;stroke-width:0.46153846153846}
		.st6 {fill:none;stroke:none;stroke-linecap:round;stroke-linejoin:round;stroke-width:0.72}
		.st7 {fill:#000000;font-family:Arial;font-size:1.5em;font-weight:bold}
		.st8 {fill:none;fill-rule:evenodd;font-size:12;overflow:visible;stroke-linecap:square;stroke-miterlimit:3}
	]]>
	</style>

	<defs id="Patterns_And_Gradients">
		<linearGradient id="grad29-4" v:fillPattern="29" v:foreground="#ffffff" v:background="#f4f462" x1="0" y1="0" x2="0" y2="1">
			<stop offset="0" style="stop-color:#f4f462;stop-opacity:1"/>
			<stop offset="0.5" style="stop-color:#ffffff;stop-opacity:1"/>
			<stop offset="1" style="stop-color:#f4f462;stop-opacity:1"/>
		</linearGradient>
		<pattern id="grad34-8" v:fillPattern="34" v:foreground="#ffffff" v:background="#3366ff" x="0" y="0" width="1" height="1"
				patternContentUnits="objectBoundingBox">
			<path d="M 0 0 L 1 0 L 1 1 z" style="fill:url(#grad30-9)"/>
			<path d="M 0 0 L 0 1 L 1 1 z" style="fill:url(#grad27-10)"/>
		</pattern>
		<linearGradient id="grad30-9" v:fillPattern="34" v:foreground="#ffffff" v:background="#3366ff" x1="0" y1="1" x2="0" y2="0">
			<stop offset="0" style="stop-color:#ffffff;stop-opacity:1"/>
			<stop offset="1" style="stop-color:#3366ff;stop-opacity:1"/>
		</linearGradient>
		<linearGradient id="grad27-10" v:fillPattern="34" v:foreground="#ffffff" v:background="#3366ff" x1="1" y1="0" x2="0" y2="0">
			<stop offset="0" style="stop-color:#ffffff;stop-opacity:1"/>
			<stop offset="1" style="stop-color:#3366ff;stop-opacity:1"/>
		</linearGradient>
		<radialGradient id="grad36-14" v:fillPattern="36" v:foreground="#ffffff" v:background="#f0a028" cx="0" cy="0" r="1">
			<stop offset="0" style="stop-color:#ffffff;stop-opacity:1"/>
			<stop offset="1" style="stop-color:#f0a028;stop-opacity:1"/>
		</radialGradient>
	</defs>
	<defs id="Markers">
		<g id="lend13">
			<path d="M 3 1 L -0 0 L 3 -1 L 3 1 " style="stroke:none"/>
		</g>
		<marker id="mrkr13-35" class="st5" v:arrowType="13" v:arrowSize="2" v:setback="6.5" refX="-6.5" orient="auto"
				markerUnits="strokeWidth">
			<use xlink:href="#lend13" transform="scale(-2.1666666666667,-2.1666666666667) "/>
		</marker>
	</defs>
	<g v:mID="0" v:index="1" v:groupContext="foregroundPage">
		<title>Page-1</title>
		<v:pageProperties v:drawingScale="0.0393701" v:pageScale="0.0393701" v:drawingUnits="24" v:shadowOffsetX="8.50394"
				v:shadowOffsetY="-8.50394"/>
		<v:layer v:name="Connector" v:index="0"/>
		<g id="shape8-1" v:mID="8" v:groupContext="shape" transform="translate(0.72,-0.72)">
			<title>Rounded rectangle</title>
			<v:userDefs>
				<v:ud v:nameU="visVersion" v:val="VT0(11):26"/>
			</v:userDefs>
			<path d="M382.68 270.73 A14.1733 14.1733 -180 0 0 396.85 256.56 L396.85 199.87 A14.1733 14.1733 -180 0 0 382.68 185.69
						 L14.17 185.69 A14.1733 14.1733 -180 0 0 0 199.87 L0 256.56 A14.1733 14.1733 -180 0 0 14.17 270.73 L382.68
						 270.73 Z" class="st1"/>
		</g>
		<g id="shape1-5" v:mID="1" v:groupContext="shape" transform="translate(14.8932,-14.1846)">
			<title>Rectangle</title>
			<v:userDefs>
				<v:ud v:nameU="visVersion" v:val="VT0(11):26"/>
			</v:userDefs>
			<rect x="0" y="213.33" width="85.0394" height="57.4016" class="st2"/>
		</g>
		<g id="shape5-11" v:mID="5" v:groupContext="shape" transform="translate(14.8932,-114.106)">
			<title>Ellipse</title>
			<v:userDefs>
				<v:ud v:nameU="visVersion" v:val="VT0(11):26"/>
			</v:userDefs>
			<path d="M0 242.38 A42.5197 28.3465 0 0 1 85.04 242.38 A42.5197 28.3465 0 0 1 -0 242.38 Z" class="st3"/>
		</g>
		<g id="shape2-15" v:mID="2" v:groupContext="shape" transform="translate(156.626,-114.106)">
			<title>Ellipse.2</title>
			<v:userDefs>
				<v:ud v:nameU="visVersion" v:val="VT0(11):26"/>
			</v:userDefs>
			<path d="M0 242.38 A42.5197 28.3465 0 0 1 85.04 242.38 A42.5197 28.3465 0 0 1 -0 242.38 Z" class="st3"/>
		</g>
		<g id="shape3-18" v:mID="3" v:groupContext="shape" transform="translate(156.626,-213.318)">
			<title>Ellipse.3</title>
			<v:userDefs>
				<v:ud v:nameU="visVersion" v:val="VT0(11):26"/>
			</v:userDefs>
			<path d="M0 242.38 A42.5197 28.3465 0 0 1 85.04 242.38 A42.5197 28.3465 0 0 1 -0 242.38 Z" class="st3"/>
		</g>
		<g id="shape4-21" v:mID="4" v:groupContext="shape" transform="translate(156.626,-14.1846)">
			<title>Rectangle.4</title>
			<v:userDefs>
				<v:ud v:nameU="visVersion" v:val="VT0(11):26"/>
			</v:userDefs>
			<rect x="0" y="213.33" width="85.0394" height="57.4016" class="st2"/>
		</g>
		<g id="shape6-24" v:mID="6" v:groupContext="shape" transform="translate(298.358,-14.1846)">
			<title>Rectangle.6</title>
			<v:userDefs>
				<v:ud v:nameU="visVersion" v:val="VT0(11):26"/>
			</v:userDefs>
			<rect x="0" y="213.33" width="85.0394" height="57.4016" class="st2"/>
		</g>
		<g id="shape7-27" v:mID="7" v:groupContext="shape" transform="translate(298.358,-113.397)">
			<title>Rectangle.7</title>
			<v:userDefs>
				<v:ud v:nameU="visVersion" v:val="VT0(11):26"/>
			</v:userDefs>
			<rect x="0" y="213.33" width="85.0394" height="57.4016" class="st2"/>
		</g>
		<g id="shape9-30" v:mID="9" v:groupContext="shape" v:layerMember="0" transform="translate(199.145,-213.318)">
			<title>Dynamic connector</title>
			<v:userDefs>
				<v:ud v:nameU="visVersion" v:val="VT0(11):26"/>
			</v:userDefs>
			<path d="M0 270.73 L0 284.9 L141.73 284.9 L141.73 299.21" class="st4"/>
		</g>
		<g id="shape10-36" v:mID="10" v:groupContext="shape" v:layerMember="0" transform="translate(199.145,-213.318)">
			<title>Dynamic connector.10</title>
			<v:userDefs>
				<v:ud v:nameU="visVersion" v:val="VT0(11):26"/>
			</v:userDefs>
			<path d="M0 270.73 L0 284.9 L-141.73 284.9 L-141.73 299.21" class="st4"/>
		</g>
		<g id="shape11-41" v:mID="11" v:groupContext="shape" v:layerMember="0" transform="translate(192.059,-213.318)">
			<title>Dynamic connector.11</title>
			<v:userDefs>
				<v:ud v:nameU="visVersion" v:val="VT0(11):26"/>
			</v:userDefs>
			<path d="M7.09 270.73 L7.09 284.9 L7.09 299.21" class="st4"/>
		</g>
		<g id="shape12-46" v:mID="12" v:groupContext="shape" v:layerMember="0" transform="translate(192.059,-114.106)">
			<title>Dynamic connector.12</title>
			<v:userDefs>
				<v:ud v:nameU="visVersion" v:val="VT0(11):26"/>
			</v:userDefs>
			<path d="M7.09 270.73 L7.09 299.21" class="st4"/>
		</g>
		<g id="shape13-51" v:mID="13" v:groupContext="shape" v:layerMember="0" transform="translate(333.791,-113.397)">
			<title>Dynamic connector.13</title>
			<v:userDefs>
				<v:ud v:nameU="visVersion" v:val="VT0(11):26"/>
			</v:userDefs>
			<path d="M7.09 270.73 L7.09 298.5" class="st4"/>
		</g>
		<g id="shape14-56" v:mID="14" v:groupContext="shape" v:layerMember="0" transform="translate(50.3263,-114.106)">
			<title>Dynamic connector.14</title>
			<v:userDefs>
				<v:ud v:nameU="visVersion" v:val="VT0(11):26"/>
			</v:userDefs>
			<path d="M7.09 270.73 L7.09 299.21" class="st4"/>
		</g>
		<g id="shape15-61" v:mID="15" v:groupContext="shape" transform="translate(14.8932,-14.1846)">
			<title>Sheet.15</title>
			<desc>A</desc>
			<v:textBlock v:margins="rect(4,4,4,4)" v:tabSpace="42.5197"/>
			<v:textRect cx="42.5197" cy="242.314" width="85.04" height="56.8346"/>
			<rect x="0" y="213.897" width="85.0394" height="56.8346" class="st6"/>
			<text x="36.03" y="247.71" class="st7" v:langID="1036"><v:paragraph v:horizAlign="1"/><v:tabList/>A</text>		</g>
		<g id="shape16-64" v:mID="16" v:groupContext="shape" transform="translate(156.626,-14.8932)">
			<title>Sheet.16</title>
			<desc>B</desc>
			<v:textBlock v:margins="rect(4,4,4,4)" v:tabSpace="42.5197"/>
			<v:textRect cx="42.5197" cy="242.314" width="85.04" height="56.8346"/>
			<rect x="0" y="213.897" width="85.0394" height="56.8346" class="st6"/>
			<text x="36.03" y="247.71" class="st7" v:langID="1036"><v:paragraph v:horizAlign="1"/><v:tabList/>B</text>		</g>
		<g id="shape17-67" v:mID="17" v:groupContext="shape" transform="translate(298.358,-14.7515)">
			<title>Sheet.17</title>
			<desc>C</desc>
			<v:textBlock v:margins="rect(4,4,4,4)" v:tabSpace="42.5197"/>
			<v:textRect cx="42.5197" cy="242.314" width="85.04" height="56.8346"/>
			<rect x="0" y="213.897" width="85.0394" height="56.8346" class="st6"/>
			<text x="36.03" y="247.71" class="st7" v:langID="1036"><v:paragraph v:horizAlign="1"/><v:tabList/>C</text>		</g>
		<g id="shape18-70" v:mID="18" v:groupContext="shape" transform="translate(298.358,-113.964)">
			<title>Sheet.18</title>
			<desc>C</desc>
			<v:textBlock v:margins="rect(4,4,4,4)" v:tabSpace="42.5197"/>
			<v:textRect cx="42.5197" cy="242.314" width="85.04" height="56.8346"/>
			<rect x="0" y="213.897" width="85.0394" height="56.8346" class="st6"/>
			<text x="36.03" y="247.71" class="st7" v:langID="1036"><v:paragraph v:horizAlign="1"/><v:tabList/>C</text>		</g>
	</g>
</svg>
