<?xml version="1.0" encoding="UTF-8" standalone="no"?>
<!DOCTYPE svg PUBLIC "-//W3C//DTD SVG 1.0//EN" "http://www.w3.org/TR/2001/REC-SVG-20010904/DTD/svg10.dtd">
<!-- Generated by Microsoft Visio 11.0, SVG Export, v1.0 SDF-Markups-2-bis.svg Page-1 -->
<svg xmlns="http://www.w3.org/2000/svg" xmlns:v="http://schemas.microsoft.com/visio/2003/SVGExtensions/" width="4.04543in"
		height="2.53365in" viewBox="0 0 291.271 182.423" xml:space="preserve" color-interpolation-filters="sRGB" class="st9">
	<v:documentProperties v:langID="1033" v:metric="true" v:viewMarkup="false"/>

	<style type="text/css">
	<![CDATA[
		.st1 {fill:#f4f462;stroke:#000000;stroke-linecap:round;stroke-linejoin:round;stroke-width:0.72}
		.st2 {fill:#3366ff;stroke:#000000;stroke-linecap:round;stroke-linejoin:round;stroke-width:0.72}
		.st3 {fill:none;stroke:none;stroke-linecap:round;stroke-linejoin:round;stroke-width:0.72}
		.st4 {fill:#ffffff;font-family:Arial;font-size:1.5em;font-weight:bold}
		.st5 {stroke:#000000;stroke-linecap:round;stroke-linejoin:round;stroke-width:3.12}
		.st6 {stroke:#000000;stroke-dasharray:3.12,6.24;stroke-linecap:round;stroke-linejoin:round;stroke-width:3.12}
		.st7 {fill:#ffffff;stroke:#000000;stroke-linecap:round;stroke-linejoin:round;stroke-width:0.24}
		.st8 {fill:#000000;font-family:Arial;font-size:1.16666em}
		.st9 {fill:none;fill-rule:evenodd;font-size:12;overflow:visible;stroke-linecap:square;stroke-miterlimit:3}
	]]>
	</style>

	<g v:mID="0" v:index="1" v:groupContext="foregroundPage">
		<title>Page-1</title>
		<v:pageProperties v:drawingScale="0.0393701" v:pageScale="0.0393701" v:drawingUnits="24" v:shadowOffsetX="8.50394"
				v:shadowOffsetY="-8.50394"/>
		<v:layer v:name="Connector" v:index="0"/>
		<g id="shape8-1" v:mID="8" v:groupContext="shape" transform="translate(7.08661,-65.9169)">
			<title>Rounded rectangle</title>
			<v:userDefs>
				<v:ud v:nameU="visVersion" v:val="VT0(11):26"/>
			</v:userDefs>
			<path d="M269.29 182.42 A14.1733 14.1733 -180 0 0 283.46 168.25 L283.46 111.56 A14.1733 14.1733 -180 0 0 269.29 97.38
						 L14.17 97.38 A14.1733 14.1733 -180 0 0 0 111.56 L0 168.25 A14.1733 14.1733 -180 0 0 14.17 182.42 L269.29
						 182.42 Z" class="st1"/>
		</g>
		<g id="shape4-3" v:mID="4" v:groupContext="shape" transform="translate(162.992,-79.3814)">
			<title>Rectangle.4</title>
			<v:userDefs>
				<v:ud v:nameU="visVersion" v:val="VT0(11):26"/>
			</v:userDefs>
			<rect x="0" y="125.021" width="85.0394" height="57.4016" class="st2"/>
		</g>
		<g id="shape16-5" v:mID="16" v:groupContext="shape" transform="translate(162.992,-80.0901)">
			<title>Sheet.16</title>
			<desc>BLOCK</desc>
			<v:textBlock v:margins="rect(4,4,4,4)" v:tabSpace="42.5197"/>
			<v:textRect cx="42.5197" cy="154.005" width="85.04" height="56.8346"/>
			<rect x="0" y="125.588" width="85.0394" height="56.8346" class="st3"/>
			<text x="10.53" y="159.41" class="st4" v:langID="1036"><v:paragraph v:horizAlign="1"/><v:tabList/>BLOCK</text>		</g>
		<g id="shape1-8" v:mID="1" v:groupContext="shape" v:layerMember="0" transform="translate(-3.9968E-015,-179.303)">
			<title>Dynamic connector</title>
			<v:userDefs>
				<v:ud v:nameU="visVersion" v:val="VT0(11):26"/>
			</v:userDefs>
			<path d="M7.09 182.42 L7.09 295.81" class="st5"/>
		</g>
		<g id="shape2-11" v:mID="2" v:groupContext="shape" v:layerMember="0" transform="translate(155.906,-179.303)">
			<title>Dynamic connector.2</title>
			<v:userDefs>
				<v:ud v:nameU="visVersion" v:val="VT0(11):26"/>
			</v:userDefs>
			<path d="M7.09 182.42 L7.09 295.81" class="st5"/>
		</g>
		<g id="shape3-14" v:mID="3" v:groupContext="shape" v:layerMember="0" transform="translate(-3.9968E-015,-65.9169)">
			<title>Dynamic connector.3</title>
			<v:userDefs>
				<v:ud v:nameU="visVersion" v:val="VT0(11):26"/>
			</v:userDefs>
			<path d="M7.09 182.42 L7.09 239.12" class="st6"/>
		</g>
		<g id="shape5-17" v:mID="5" v:groupContext="shape" v:layerMember="0" transform="translate(155.906,-65.9169)">
			<title>Dynamic connector.5</title>
			<v:userDefs>
				<v:ud v:nameU="visVersion" v:val="VT0(11):26"/>
			</v:userDefs>
			<path d="M7.09 182.42 L7.09 239.12" class="st6"/>
		</g>
		<g id="shape6-20" v:mID="6" v:groupContext="shape" transform="translate(7.08661,-17.7279)">
			<title>45 degree double</title>
			<v:userDefs>
				<v:ud v:nameU="visVersion" v:val="VT0(11):26"/>
			</v:userDefs>
			<path d="M0 165.41 L17.01 148.41 L17.01 159.63 L138.9 159.63 L138.9 148.41 L155.91 165.41 L138.9 182.42 L138.9 171.2
						 L17.01 171.2 L17.01 182.42 L0 165.41 Z" class="st7"/>
		</g>
		<g id="shape7-22" v:mID="7" v:groupContext="shape" transform="translate(162.992,-17.7279)">
			<title>45 degree double.7</title>
			<v:userDefs>
				<v:ud v:nameU="visVersion" v:val="VT0(11):26"/>
			</v:userDefs>
			<path d="M0 165.41 L17.01 148.41 L17.01 159.63 L68.03 159.63 L68.03 148.41 L85.04 165.41 L68.03 182.42 L68.03 171.2 L17.01
						 171.2 L17.01 182.42 L0 165.41 Z" class="st7"/>
		</g>
		<g id="shape9-24" v:mID="9" v:groupContext="shape" v:layerMember="0" transform="translate(240.945,-179.303)">
			<title>Dynamic connector.9</title>
			<v:userDefs>
				<v:ud v:nameU="visVersion" v:val="VT0(11):26"/>
			</v:userDefs>
			<path d="M7.09 182.42 L7.09 295.81" class="st5"/>
		</g>
		<g id="shape10-27" v:mID="10" v:groupContext="shape" v:layerMember="0" transform="translate(240.945,-65.9169)">
			<title>Dynamic connector.10</title>
			<v:userDefs>
				<v:ud v:nameU="visVersion" v:val="VT0(11):26"/>
			</v:userDefs>
			<path d="M7.09 182.42 L7.09 239.12" class="st6"/>
		</g>
		<g id="shape11-30" v:mID="11" v:groupContext="shape" transform="translate(21.2598,-0.72)">
			<title>Sheet.11</title>
			<desc>Offset</desc>
			<v:textBlock v:margins="rect(4,4,4,4)" v:tabSpace="42.5197"/>
			<v:textRect cx="63.7795" cy="171.084" width="127.56" height="22.6772"/>
			<rect x="0" y="159.746" width="127.559" height="22.6772" class="st3"/>
			<text x="45.1" y="175.28" class="st8" v:langID="1036"><v:paragraph v:horizAlign="1"/><v:tabList/>Offset</text>		</g>
		<g id="shape12-33" v:mID="12" v:groupContext="shape" transform="translate(162.992,-0.72)">
			<title>Sheet.12</title>
			<desc>Length</desc>
			<v:textBlock v:margins="rect(4,4,4,4)" v:tabSpace="42.5197"/>
			<v:textRect cx="42.5197" cy="171.084" width="85.04" height="22.6772"/>
			<rect x="0" y="159.746" width="85.0394" height="22.6772" class="st3"/>
			<text x="21.12" y="175.28" class="st8" v:langID="1036"><v:paragraph v:horizAlign="1"/><v:tabList/>Length</text>		</g>
	</g>
</svg>
