<?xml version="1.0" encoding="UTF-8" standalone="no"?>
<!DOCTYPE svg PUBLIC "-//W3C//DTD SVG 1.0//EN" "http://www.w3.org/TR/2001/PR-SVG-20010719/DTD/svg10.dtd">
<svg width="14.5cm" height="9.75cm" viewBox="-12 -29 58 39">
  <rect style="fill: #ffffff" x="-11.5499" y="-28.31" width="57.7001" height="38.5"/>
  <rect style="fill: none; fill-opacity:0; stroke-width: 0.1; stroke: #e03434" x="-11.5499" y="-28.31" width="57.7001" height="38.5"/>
  <rect style="fill: #ffffff" x="-8.4999" y="-26.36" width="53.05" height="34.65"/>
  <rect style="fill: none; fill-opacity:0; stroke-width: 0.1; stroke: #e03434" x="-8.4999" y="-26.36" width="53.05" height="34.65"/>
  <text style="fill: #000000; text-anchor:start; font-size: 1.5; font-family: sans; font-style: normal; font-weight: normal" x="36.325" y="-24.16">SAFE Product</text>
  <rect style="fill: #ffffff" x="-0.3499" y="-23.1368" width="37.3981" height="14.6123"/>
  <rect style="fill: none; fill-opacity:0; stroke-width: 0.1; stroke: #e03434" x="-0.3499" y="-23.1368" width="37.3981" height="14.6123"/>
  <text style="fill: #000000; text-anchor:start; font-size: 1.5; font-family: sans; font-style: normal; font-weight: normal" x="23.6482" y="-21.2744">Information Package Map</text>
  <rect style="fill: #ffffff" x="11.6982" y="-18.3744" width="13.55" height="6"/>
  <rect style="fill: none; fill-opacity:0; stroke-width: 0.1; stroke: #e03434" x="11.6982" y="-18.3744" width="13.55" height="6"/>
  <text style="fill: #000000; text-anchor:start; font-size: 1.3; font-family: sans; font-style: normal; font-weight: normal" x="15.5482" y="-16.5244">Content Unit</text>
  <path style="fill: none; fill-opacity:0; stroke-width: 0.1; stroke: #e03434" d="M 25.2482 -15.3744 C 31.3501,-21.0868 19.1501,-21.2368 18.5852,-18.8481"/>
  <polygon style="fill: #e03434" points="18.4989,-18.4832 18.3707,-19.0273 18.5852,-18.8481 18.8573,-18.9122 "/>
  <polygon style="fill: none; fill-opacity:0; stroke-width: 0.1; stroke: #e03434" points="18.4989,-18.4832 18.3707,-19.0273 18.5852,-18.8481 18.8573,-18.9122 "/>
  <text style="fill: #000000; text-anchor:start; font-size: 1; font-family: sans; font-style: normal; font-weight: normal" x="16.5982" y="-18.9744">0..*</text>
  <rect style="fill: #ffffff" x="-5.8018" y="-6.52436" width="20.95" height="12.1144"/>
  <rect style="fill: none; fill-opacity:0; stroke-width: 0.1; stroke: #e03434" x="-5.8018" y="-6.52436" width="20.95" height="12.1144"/>
  <rect style="fill: #ffffff" x="21.0401" y="-6.54678" width="20.95" height="12.0868"/>
  <rect style="fill: none; fill-opacity:0; stroke-width: 0.1; stroke: #e03434" x="21.0401" y="-6.54678" width="20.95" height="12.0868"/>
  <text style="fill: #000000; text-anchor:start; font-size: 1.5; font-family: sans; font-style: normal; font-weight: normal" x="5.5501" y="-4.53678">Metadata Objects</text>
  <text style="fill: #000000; text-anchor:start; font-size: 1.5; font-family: sans; font-style: normal; font-weight: normal" x="34.4401" y="-4.44678">Data Objects</text>
  <line style="fill: none; fill-opacity:0; stroke-width: 0.1; stroke: #e03434" x1="18.4732" y1="-12.3744" x2="5.12139" y2="-6.71436"/>
  <polygon style="fill: #e03434" points="4.77614,-6.568 5.13891,-6.99332 5.12139,-6.71436 5.33405,-6.53297 "/>
  <polygon style="fill: none; fill-opacity:0; stroke-width: 0.1; stroke: #e03434" points="4.77614,-6.568 5.13891,-6.99332 5.12139,-6.71436 5.33405,-6.53297 "/>
  <line style="fill: none; fill-opacity:0; stroke-width: 0.1; stroke: #e03434" x1="18.4732" y1="-12.3744" x2="31.0706" y2="-6.74538"/>
  <polygon style="fill: #e03434" points="31.413,-6.59239 30.8545,-6.56812 31.0706,-6.74538 31.0585,-7.02462 "/>
  <polygon style="fill: none; fill-opacity:0; stroke-width: 0.1; stroke: #e03434" points="31.413,-6.59239 30.8545,-6.56812 31.0706,-6.74538 31.0585,-7.02462 "/>
  <text style="fill: #000000; text-anchor:start; font-size: 1.1; font-family: sans; font-style: normal; font-weight: normal" x="-4.0099" y="-1.24678">- Presentation</text>
  <text style="fill: #000000; text-anchor:start; font-size: 1.1; font-family: sans; font-style: normal; font-weight: normal" x="-4.0099" y="-0.14678">- Preservation</text>
  <text style="fill: #000000; text-anchor:start; font-size: 1.1; font-family: sans; font-style: normal; font-weight: normal" x="-4.0099" y="0.95322">- Processing Logs</text>
  <text style="fill: #000000; text-anchor:start; font-size: 1.1; font-family: sans; font-style: normal; font-weight: normal" x="-4.0099" y="2.05322">- Quality Information</text>
  <text style="fill: #000000; text-anchor:start; font-size: 1.1; font-family: sans; font-style: normal; font-weight: normal" x="23.2001" y="-1.48678">- Images</text>
  <text style="fill: #000000; text-anchor:start; font-size: 1.1; font-family: sans; font-style: normal; font-weight: normal" x="23.2001" y="-0.38678">- Scientific Measurements</text>
  <text style="fill: #000000; text-anchor:start; font-size: 1.1; font-family: sans; font-style: normal; font-weight: normal" x="23.2001" y="0.71322">- Indexes</text>
  <text style="fill: #000000; text-anchor:start; font-size: 1.1; font-family: sans; font-style: normal; font-weight: normal" x="23.2001" y="1.81322">- Browse</text>
  <text style="fill: #000000; text-anchor:start; font-size: 1.1; font-family: sans; font-style: normal; font-weight: normal" x="23.2001" y="2.91322">- Auxiliary Data</text>
  <text style="fill: #000000; text-anchor:start; font-size: 1; font-family: sans; font-style: normal; font-weight: normal" x="26.0401" y="-7.32">0..*</text>
  <text style="fill: #000000; text-anchor:start; font-size: 0.8; font-family: sans; font-style: normal; font-weight: normal" x="19.5501" y="-7.26"></text>
  <text style="fill: #000000; text-anchor:start; font-size: 1; font-family: sans; font-style: normal; font-weight: normal" x="9.6351" y="-7.26">2..*</text>
</svg>
