<?xml version="1.0" encoding="UTF-8" standalone="no"?>
<!DOCTYPE svg PUBLIC "-//W3C//DTD SVG 1.0//EN"
 "http://www.w3.org/TR/2001/REC-SVG-20010904/DTD/svg10.dtd">
<!-- Generated by dot version 2.2 (Sun Jan 23 23:15:01 UTC 2005)
     For user: (moucha)    Title: _anonymous_0    Pages: 1 -->
<svg width="300pt" height="139pt"
 viewBox = "-1 -1 299 138"
 xmlns="http://www.w3.org/2000/svg">
<g id="graph0" class="graph" transform = "scale(0.723618)"
 style="font-family:Times-Roman;font-size:14.00;">
<title>_anonymous_0</title>
<g id="node1" class="node"><title>houseType</title>
<polygon style="fill:#ffcc66;stroke:#ffcc66;" points="135,73 5,73 5,125 135,125 135,73"/>
<text text-anchor="middle" style="font-family:SansSerif;font-size:10.00;" x="70" y="89"> : ns1:houseType</text>
<polygon style="fill:none;stroke:black;" points="5,99 5,73 135,73 135,99 5,99"/>
<text text-anchor="middle" style="font-family:SansSerif;font-size:8.00;fill:#6a6a6a;" x="51" y="115">color : ns1:colorType</text>
<polygon style="fill:none;stroke:black;" points="5,125 5,99 135,99 135,125 5,125"/>
</g>
<g id="node2" class="node"><title>houseTypeModelGroup</title>
<ellipse cx="187" cy="99" rx="15" ry="15" style="fill:#f0f0a0;stroke:black;"/>
<text text-anchor="middle" style="font-family:SansSerif;font-size:8.00;" x="187" y="102">S</text>
</g>
<g id="edge2" class="edge"><title>houseType&#45;&gt;houseTypeModelGroup</title>
<path style="fill:none;stroke:black;" d="M135,99C144,99 153,99 161,99"/>
<polygon style="fill:black;stroke:black;" points="161,95 171,99 161,102 161,95"/>
</g>
<g id="node4" class="node"><title>houseTypeModelGrouplivingRoom</title>
<text text-anchor="middle" style="font-family:SansSerif;font-size:10.00;" x="321" y="23">livingRoom : ns1:livingRoomType</text>
<polygon style="fill:none;stroke:black;" points="239,33 239,7 403,7 403,33 239,33"/>
<text text-anchor="middle" style="font-family:SansSerif;font-size:8.00;fill:#6a6a6a;" x="287" y="49">TV : ns1:TVType[0..1]</text>
<polygon style="fill:none;stroke:black;" points="239,59 239,33 403,33 403,59 239,59"/>
</g>
<g id="edge4" class="edge"><title>houseTypeModelGroup&#45;&gt;houseTypeModelGrouplivingRoom</title>
<path style="fill:none;stroke:black;" d="M200,91C211,84 226,75 239,68 242,66 246,65 250,63"/>
<polygon style="fill:black;stroke:black;" points="248,60 259,59 251,66 248,60"/>
</g>
<g id="node6" class="node"><title>houseTypeModelGroupchimney</title>
<text text-anchor="middle" style="font-family:SansSerif;font-size:10.00;" x="321" y="93">chimney : ns1:chimneyType</text>
<polygon style="fill:none;stroke:black;" points="251,103 251,77 391,77 391,103 251,103"/>
<polygon style="fill:none;stroke:black;" points="251,121 251,103 391,103 391,121 251,121"/>
</g>
<g id="edge6" class="edge"><title>houseTypeModelGroup&#45;&gt;houseTypeModelGroupchimney</title>
<path style="fill:none;stroke:black;" d="M203,99C213,99 226,99 241,99"/>
<polygon style="fill:black;stroke:black;" points="241,95 251,99 241,102 241,95"/>
<text text-anchor="middle" style="font-family:SansSerif;font-size:8.00;" x="233" y="94">0..1</text>
</g>
<g id="node8" class="node"><title>houseTypeModelGrouproom</title>
<text text-anchor="middle" style="font-family:SansSerif;font-size:10.00;" x="321" y="155">room : ns1:roomType</text>
<polygon style="fill:none;stroke:black;" points="256,165 256,139 386,139 386,165 256,165"/>
<polygon style="fill:none;stroke:black;" points="256,183 256,165 386,165 386,183 256,183"/>
</g>
<g id="edge8" class="edge"><title>houseTypeModelGroup&#45;&gt;houseTypeModelGrouproom</title>
<path style="fill:none;stroke:black;" d="M200,108C210,115 225,124 239,130 243,132 246,133 250,135"/>
<polygon style="fill:black;stroke:black;" points="251,132 259,139 248,138 251,132"/>
<text text-anchor="middle" style="font-family:SansSerif;font-size:8.00;" x="246" y="127">1..*</text>
</g>
</g>
</svg>
