<?xml version="1.0" encoding="UTF-8" standalone="no"?>
<!DOCTYPE svg PUBLIC "-//W3C//DTD SVG 1.0//EN" "http://www.w3.org/TR/2001/PR-SVG-20010719/DTD/svg10.dtd">
<svg width="12.5cm" height="9cm" viewBox="-2 -2 50 36">
  <rect style="fill: #ffffff" x="-1.05" y="-1.625" width="49.75" height="35.15"/>
  <rect style="fill: none; fill-opacity:0; stroke-width: 0.1; stroke: #e03434" x="-1.05" y="-1.625" width="49.75" height="35.15"/>
  <rect style="fill: #ffffff" x="0.95" y="0.275" width="30.6" height="31.15"/>
  <rect style="fill: none; fill-opacity:0; stroke-width: 0.1; stroke: #e03434" x="0.95" y="0.275" width="30.6" height="31.15"/>
  <text style="fill: #000000; text-anchor:start; font-size: 0.8; font-family: sans; font-style: normal; font-weight: normal" x="3.8" y="13.45"></text>
  <text style="fill: #000000; text-anchor:start; font-size: 0.8; font-family: sans; font-style: normal; font-weight: normal" x="6.2" y="5.7"></text>
  <text style="fill: #000000; text-anchor:start; font-size: 0.8; font-family: sans; font-style: normal; font-weight: normal" x="9.4" y="24.2"></text>
  <rect style="fill: #ffffff" x="18.6" y="4.95" width="12" height="8.1"/>
  <rect style="fill: none; fill-opacity:0; stroke-width: 0.1; stroke: #e03434" x="18.6" y="4.95" width="12" height="8.1"/>
  <rect style="fill: #ffffff" x="18.65" y="15.55" width="11.95" height="12.35"/>
  <rect style="fill: none; fill-opacity:0; stroke-width: 0.1; stroke: #e03434" x="18.65" y="15.55" width="11.95" height="12.35"/>
  <text style="fill: #000000; text-anchor:start; font-size: 1.3; font-family: sans; font-style: normal; font-weight: normal" x="21.35" y="6.25">metadataObject</text>
  <text style="fill: #000000; text-anchor:start; font-size: 1.3; font-family: sans; font-style: normal; font-weight: normal" x="22.55" y="17.25">dataObject</text>
  <text style="fill: #000000; text-anchor:start; font-size: 1; font-family: sans; font-style: normal; font-weight: normal" x="23.65" y="7.75">@ID</text>
  <rect style="fill: #ffffff" x="19.3" y="9.05" width="10.2" height="3.3"/>
  <rect style="fill: none; fill-opacity:0; stroke-width: 0.1; stroke: #e03434" x="19.3" y="9.05" width="10.2" height="3.3"/>
  <text style="fill: #000000; text-anchor:start; font-size: 1.3; font-family: sans; font-style: normal; font-weight: normal" x="20.4" y="10.3">metadataReference</text>
  <text style="fill: #000000; text-anchor:start; font-size: 1; font-family: sans; font-style: normal; font-weight: normal" x="22.45" y="11.65">@xlink:href</text>
  <rect style="fill: #ffffff" x="19.65" y="21.2" width="9.85" height="5.85"/>
  <rect style="fill: none; fill-opacity:0; stroke-width: 0.1; stroke: #e03434" x="19.65" y="21.2" width="9.85" height="5.85"/>
  <text style="fill: #000000; text-anchor:start; font-size: 1; font-family: sans; font-style: normal; font-weight: normal" x="23.45" y="19.2">@ID</text>
  <text style="fill: #000000; text-anchor:start; font-size: 1; font-family: sans; font-style: normal; font-weight: normal" x="23.45" y="20.2">@repID</text>
  <text style="fill: #000000; text-anchor:start; font-size: 1.3; font-family: sans; font-style: normal; font-weight: normal" x="22.35" y="22.5">byteStream</text>
  <rect style="fill: #ffffff" x="20.65" y="23.1" width="7.85" height="3.2"/>
  <rect style="fill: none; fill-opacity:0; stroke-width: 0.1; stroke: #e03434" x="20.65" y="23.1" width="7.85" height="3.2"/>
  <text style="fill: #000000; text-anchor:start; font-size: 1; font-family: sans; font-style: normal; font-weight: normal" x="22.7" y="25.4">@xlink:href</text>
  <rect style="fill: #ffffff" x="34.35" y="20.0733" width="7.29875" height="6.44007"/>
  <ellipse style="fill: #ffffff" cx="37.9994" cy="26.5134" rx="3.64938" ry="1.07335"/>
  <ellipse style="fill: #ffffff" cx="37.9994" cy="20.0733" rx="3.64938" ry="1.07335"/>
  <ellipse style="fill: none; fill-opacity:0; stroke-width: 0.1; stroke: #e03434" cx="37.9994" cy="20.0733" rx="3.64938" ry="1.07335"/>
  <path style="fill: none; fill-opacity:0; stroke-width: 0.1; stroke: #e03434" d="M 41.6488 20.0733 L 41.6488,26.5134 C 41.6488,27.1062 40.0149,27.5868 37.9994,27.5868 C 35.9839,27.5868 34.35,27.1062 34.35,26.5134 L 34.35,20.0733"/>
  <text style="fill: #000000; text-anchor:end; font-size: 1.5; font-family: sans; font-style: normal; font-weight: normal" x="47.2301" y="28.7868">index.dat</text>
  <rect style="fill: #ffffff" x="33.97" y="5.84335" width="7.29875" height="6.44007"/>
  <ellipse style="fill: #ffffff" cx="37.6194" cy="12.2834" rx="3.64938" ry="1.07335"/>
  <ellipse style="fill: #ffffff" cx="37.6194" cy="5.84335" rx="3.64938" ry="1.07335"/>
  <ellipse style="fill: none; fill-opacity:0; stroke-width: 0.1; stroke: #e03434" cx="37.6194" cy="5.84335" rx="3.64938" ry="1.07335"/>
  <path style="fill: none; fill-opacity:0; stroke-width: 0.1; stroke: #e03434" d="M 41.2687 5.84335 L 41.2687,12.2834 C 41.2687,12.8762 39.6349,13.3568 37.6194,13.3568 C 35.6039,13.3568 33.97,12.8762 33.97,12.2834 L 33.97,5.84335"/>
  <text style="fill: #000000; text-anchor:end; font-size: 1.5; font-family: sans; font-style: normal; font-weight: normal" x="46.8501" y="14.5568">index.xsd</text>
  <path style="fill: none; fill-opacity:0; stroke-width: 0.1; stroke: #e03434" d="M 26.35 19.925 C 29.15,19.475 33.8,9.1 25.9775,7.54492"/>
  <polygon style="fill: #e03434" points="25.6097,7.4718 26.1488,7.32409 25.9775,7.54492 26.0513,7.81449 "/>
  <polygon style="fill: none; fill-opacity:0; stroke-width: 0.1; stroke: #e03434" points="25.6097,7.4718 26.1488,7.32409 25.9775,7.54492 26.0513,7.81449 "/>
  <path style="fill: none; fill-opacity:0; stroke-width: 0.1; stroke: #e03434" d="M 26.9 25.025 C 29.6556,25.025 31.5444,19.95 33.8132,19.95"/>
  <polygon style="fill: #e03434" points="34.1882,19.95 33.6882,20.2 33.8132,19.95 33.6882,19.7 "/>
  <polygon style="fill: none; fill-opacity:0; stroke-width: 0.1; stroke: #e03434" points="34.1882,19.95 33.6882,20.2 33.8132,19.95 33.6882,19.7 "/>
  <path style="fill: none; fill-opacity:0; stroke-width: 0.1; stroke: #e03434" d="M 26.8 11.325 C 32,11.975 31.3938,5.95 33.5132,5.95"/>
  <polygon style="fill: #e03434" points="33.8882,5.95 33.3882,6.2 33.5132,5.95 33.3882,5.7 "/>
  <polygon style="fill: none; fill-opacity:0; stroke-width: 0.1; stroke: #e03434" points="33.8882,5.95 33.3882,6.2 33.5132,5.95 33.3882,5.7 "/>
  <text style="fill: #000000; text-anchor:start; font-size: 2; font-family: sans; font-style: normal; font-weight: normal" x="10.75" y="2.025">MANIFEST FILE</text>
  <rect style="fill: #ffffff" x="1.7" y="3.275" width="15.8" height="18.35"/>
  <rect style="fill: none; fill-opacity:0; stroke-width: 0.1; stroke: #e03434" x="1.7" y="3.275" width="15.8" height="18.35"/>
  <rect style="fill: #ffffff" x="3.8" y="7.5" width="11.65" height="11.9"/>
  <rect style="fill: none; fill-opacity:0; stroke-width: 0.1; stroke: #e03434" x="3.8" y="7.5" width="11.65" height="11.9"/>
  <text style="fill: #000000; text-anchor:start; font-size: 1.3; font-family: sans; font-style: normal; font-weight: normal" x="7.3" y="8.9">contentUnit</text>
  <text style="fill: #000000; text-anchor:start; font-size: 1; font-family: sans; font-style: normal; font-weight: normal" x="8.3" y="10.9">@repID</text>
  <rect style="fill: #ffffff" x="5" y="13.35" width="9.05" height="4.65"/>
  <rect style="fill: none; fill-opacity:0; stroke-width: 0.1; stroke: #e03434" x="5" y="13.35" width="9.05" height="4.65"/>
  <text style="fill: #000000; text-anchor:start; font-size: 1.3; font-family: sans; font-style: normal; font-weight: normal" x="5.6" y="14.65">dataObjectPointer</text>
  <text style="fill: #000000; text-anchor:start; font-size: 1; font-family: sans; font-style: normal; font-weight: normal" x="6.85" y="16.45">@dataObjectID</text>
  <path style="fill: none; fill-opacity:0; stroke-width: 0.1; stroke: #e03434" d="M 12.15 16.225 C 15.7854,16.225 19.3146,18.925 22.4632,18.925"/>
  <polygon style="fill: #e03434" points="22.8382,18.925 22.3382,19.175 22.4632,18.925 22.3382,18.675 "/>
  <polygon style="fill: none; fill-opacity:0; stroke-width: 0.1; stroke: #e03434" points="22.8382,18.925 22.3382,19.175 22.4632,18.925 22.3382,18.675 "/>
  <path style="fill: none; fill-opacity:0; stroke-width: 0.1; stroke: #e03434" d="M 11.4 10.425 C 15.4172,10.425 19.3828,7.575 22.9132,7.575"/>
  <polygon style="fill: #e03434" points="23.2882,7.575 22.7882,7.825 22.9132,7.575 22.7882,7.325 "/>
  <polygon style="fill: none; fill-opacity:0; stroke-width: 0.1; stroke: #e03434" points="23.2882,7.575 22.7882,7.825 22.9132,7.575 22.7882,7.325 "/>
  <text style="fill: #000000; text-anchor:middle; font-size: 1.3; font-family: sans; font-style: normal; font-weight: normal" x="9.7" y="5.025">contentUnit</text>
  <text style="fill: #000000; text-anchor:middle; font-size: 1.3; font-family: sans; font-style: normal; font-weight: normal" x="9.7" y="6.325">dedicated to measurement</text>
  <text style="fill: #000000; text-anchor:start; font-size: 1.3; font-family: sans; font-style: normal; font-weight: normal" x="22.6" y="24.175">fileLocation</text>
</svg>
