<?xml version="1.0" encoding="UTF-8" standalone="no"?>
<!DOCTYPE svg PUBLIC "-//W3C//DTD SVG 1.0//EN" "http://www.w3.org/TR/2001/PR-SVG-20010719/DTD/svg10.dtd">
<svg width="12.5cm" height="9cm" viewBox="-2 -2 50 36">
  <rect style="fill: #ffffff" x="-1.05" y="-1.625" width="49.75" height="35.15"/>
  <rect style="fill: none; fill-opacity:0; stroke-width: 0.1; stroke: #e03434" x="-1.05" y="-1.625" width="49.75" height="35.15"/>
  <rect style="fill: #ffffff" x="0.95" y="0.65" width="30.6" height="30.775"/>
  <rect style="fill: none; fill-opacity:0; stroke-width: 0.1; stroke: #e03434" x="0.95" y="0.65" width="30.6" height="30.775"/>
  <rect style="fill: #ffffff" x="3.6" y="5.1" width="10.35" height="11.9"/>
  <rect style="fill: none; fill-opacity:0; stroke-width: 0.1; stroke: #e03434" x="3.6" y="5.1" width="10.35" height="11.9"/>
  <text style="fill: #000000; text-anchor:start; font-size: 0.8; font-family: sans; font-style: normal; font-weight: normal" x="2.7" y="11.025"></text>
  <text style="fill: #000000; text-anchor:start; font-size: 0.8; font-family: sans; font-style: normal; font-weight: normal" x="6.2" y="5.7"></text>
  <rect style="fill: #ffffff" x="4.45" y="11.35" width="8.5" height="4.65"/>
  <rect style="fill: none; fill-opacity:0; stroke-width: 0.1; stroke: #e03434" x="4.45" y="11.35" width="8.5" height="4.65"/>
  <text style="fill: #000000; text-anchor:start; font-size: 1.3; font-family: sans; font-style: normal; font-weight: normal" x="4.85" y="12.95">dataObjectPointer</text>
  <text style="fill: #000000; text-anchor:start; font-size: 0.8; font-family: sans; font-style: normal; font-weight: normal" x="9.4" y="24.2"></text>
  <text style="fill: #000000; text-anchor:start; font-size: 1; font-family: sans; font-style: normal; font-weight: normal" x="6.2" y="14.65">@dataObjectID</text>
  <text style="fill: #000000; text-anchor:start; font-size: 1.3; font-family: sans; font-style: normal; font-weight: normal" x="6.65" y="6.7">contentUnit</text>
  <text style="fill: #000000; text-anchor:start; font-size: 1; font-family: sans; font-style: normal; font-weight: normal" x="7.5" y="8.55">@repID</text>
  <rect style="fill: #ffffff" x="18.45" y="4.85" width="10.75" height="8.1"/>
  <rect style="fill: none; fill-opacity:0; stroke-width: 0.1; stroke: #e03434" x="18.45" y="4.85" width="10.75" height="8.1"/>
  <rect style="fill: #ffffff" x="18.45" y="16" width="10.65" height="12.35"/>
  <rect style="fill: none; fill-opacity:0; stroke-width: 0.1; stroke: #e03434" x="18.45" y="16" width="10.65" height="12.35"/>
  <text style="fill: #000000; text-anchor:start; font-size: 1.3; font-family: sans; font-style: normal; font-weight: normal" x="20.35" y="6.15">metadataObject</text>
  <text style="fill: #000000; text-anchor:start; font-size: 1.3; font-family: sans; font-style: normal; font-weight: normal" x="21.7" y="17.25">dataObject</text>
  <text style="fill: #000000; text-anchor:start; font-size: 1; font-family: sans; font-style: normal; font-weight: normal" x="23.15" y="7.85">@ID</text>
  <rect style="fill: #ffffff" x="19.35" y="8.875" width="9.05" height="3.425"/>
  <rect style="fill: none; fill-opacity:0; stroke-width: 0.1; stroke: #e03434" x="19.35" y="8.875" width="9.05" height="3.425"/>
  <text style="fill: #000000; text-anchor:start; font-size: 1.3; font-family: sans; font-style: normal; font-weight: normal" x="19.7" y="10.1">metadataReference</text>
  <text style="fill: #000000; text-anchor:start; font-size: 1; font-family: sans; font-style: normal; font-weight: normal" x="21.9" y="11.6">@xlink:href</text>
  <rect style="fill: #ffffff" x="19.25" y="21.55" width="8.95" height="5.85"/>
  <rect style="fill: none; fill-opacity:0; stroke-width: 0.1; stroke: #e03434" x="19.25" y="21.55" width="8.95" height="5.85"/>
  <text style="fill: #000000; text-anchor:start; font-size: 1; font-family: sans; font-style: normal; font-weight: normal" x="22.75" y="19.2">@ID</text>
  <text style="fill: #000000; text-anchor:start; font-size: 1; font-family: sans; font-style: normal; font-weight: normal" x="22.75" y="20.2">@repID</text>
  <text style="fill: #000000; text-anchor:start; font-size: 1.3; font-family: sans; font-style: normal; font-weight: normal" x="21.25" y="22.9">byteStream</text>
  <rect style="fill: #ffffff" x="20.05" y="23.5" width="7.4" height="3.2"/>
  <rect style="fill: none; fill-opacity:0; stroke-width: 0.1; stroke: #e03434" x="20.05" y="23.5" width="7.4" height="3.2"/>
  <text style="fill: #000000; text-anchor:start; font-size: 1; font-family: sans; font-style: normal; font-weight: normal" x="21.85" y="26.15">@xlink:href</text>
  <rect style="fill: #ffffff" x="34.35" y="20.0733" width="7.29875" height="6.44007"/>
  <ellipse style="fill: #ffffff" cx="37.9994" cy="26.5134" rx="3.64938" ry="1.07335"/>
  <ellipse style="fill: #ffffff" cx="37.9994" cy="20.0733" rx="3.64938" ry="1.07335"/>
  <ellipse style="fill: none; fill-opacity:0; stroke-width: 0.1; stroke: #e03434" cx="37.9994" cy="20.0733" rx="3.64938" ry="1.07335"/>
  <path style="fill: none; fill-opacity:0; stroke-width: 0.1; stroke: #e03434" d="M 41.6488 20.0733 L 41.6488,26.5134 C 41.6488,27.1062 40.0149,27.5868 37.9994,27.5868 C 35.9839,27.5868 34.35,27.1062 34.35,26.5134 L 34.35,20.0733"/>
  <text style="fill: #000000; text-anchor:end; font-size: 1.5; font-family: sans; font-style: normal; font-weight: normal" x="47.2301" y="28.7868">measurement.dat</text>
  <rect style="fill: #ffffff" x="33.97" y="5.84335" width="7.29875" height="6.44007"/>
  <ellipse style="fill: #ffffff" cx="37.6194" cy="12.2834" rx="3.64938" ry="1.07335"/>
  <ellipse style="fill: #ffffff" cx="37.6194" cy="5.84335" rx="3.64938" ry="1.07335"/>
  <ellipse style="fill: none; fill-opacity:0; stroke-width: 0.1; stroke: #e03434" cx="37.6194" cy="5.84335" rx="3.64938" ry="1.07335"/>
  <path style="fill: none; fill-opacity:0; stroke-width: 0.1; stroke: #e03434" d="M 41.2687 5.84335 L 41.2687,12.2834 C 41.2687,12.8762 39.6349,13.3568 37.6194,13.3568 C 35.6039,13.3568 33.97,12.8762 33.97,12.2834 L 33.97,5.84335"/>
  <text style="fill: #000000; text-anchor:end; font-size: 1.5; font-family: sans; font-style: normal; font-weight: normal" x="46.8501" y="14.5568">measurement.xsd</text>
  <path style="fill: none; fill-opacity:0; stroke-width: 0.1; stroke: #e03434" d="M 25.65 19.85 C 30.45,19.025 33.8,9.1 25.9775,7.54492"/>
  <polygon style="fill: #e03434" points="25.6097,7.4718 26.1488,7.32409 25.9775,7.54492 26.0513,7.81449 "/>
  <polygon style="fill: none; fill-opacity:0; stroke-width: 0.1; stroke: #e03434" points="25.6097,7.4718 26.1488,7.32409 25.9775,7.54492 26.0513,7.81449 "/>
  <path style="fill: none; fill-opacity:0; stroke-width: 0.1; stroke: #e03434" d="M 10.5 8.3 C 14.5172,8.3 18.5828,7.5 22.1132,7.5"/>
  <polygon style="fill: #e03434" points="22.4882,7.5 21.9882,7.75 22.1132,7.5 21.9882,7.25 "/>
  <polygon style="fill: none; fill-opacity:0; stroke-width: 0.1; stroke: #e03434" points="22.4882,7.5 21.9882,7.75 22.1132,7.5 21.9882,7.25 "/>
  <path style="fill: none; fill-opacity:0; stroke-width: 0.1; stroke: #e03434" d="M 11.25 14.3 C 14.8854,14.3 18.5646,18.95 21.7132,18.95"/>
  <polygon style="fill: #e03434" points="22.0882,18.95 21.5882,19.2 21.7132,18.95 21.5882,18.7 "/>
  <polygon style="fill: none; fill-opacity:0; stroke-width: 0.1; stroke: #e03434" points="22.0882,18.95 21.5882,19.2 21.7132,18.95 21.5882,18.7 "/>
  <path style="fill: none; fill-opacity:0; stroke-width: 0.1; stroke: #e03434" d="M 26 25.85 C 28.7556,25.85 31.5444,19.95 33.8132,19.95"/>
  <polygon style="fill: #e03434" points="34.1882,19.95 33.6882,20.2 33.8132,19.95 33.6882,19.7 "/>
  <polygon style="fill: none; fill-opacity:0; stroke-width: 0.1; stroke: #e03434" points="34.1882,19.95 33.6882,20.2 33.8132,19.95 33.6882,19.7 "/>
  <path style="fill: none; fill-opacity:0; stroke-width: 0.1; stroke: #e03434" d="M 26.15 11.45 C 28.7562,11.45 31.3938,5.95 33.5132,5.95"/>
  <polygon style="fill: #e03434" points="33.8882,5.95 33.3882,6.2 33.5132,5.95 33.3882,5.7 "/>
  <polygon style="fill: none; fill-opacity:0; stroke-width: 0.1; stroke: #e03434" points="33.8882,5.95 33.3882,6.2 33.5132,5.95 33.3882,5.7 "/>
  <text style="fill: #000000; text-anchor:start; font-size: 2; font-family: sans; font-style: normal; font-weight: normal" x="10.65" y="2.825">MANIFEST FILE</text>
  <text style="fill: #000000; text-anchor:start; font-size: 1.3; font-family: sans; font-style: normal; font-weight: normal" x="21.6" y="24.725">fileLocation</text>
</svg>
