<?xml version="1.0" encoding="UTF-8" standalone="no"?>
<!DOCTYPE svg PUBLIC "-//W3C//DTD SVG 1.0//EN" "http://www.w3.org/TR/2001/PR-SVG-20010719/DTD/svg10.dtd">
<svg width="12.5cm" height="10.5cm" viewBox="-2 -5 50 42">
  <rect style="fill: #ffffff" x="-1.05" y="-4.375" width="49.75" height="41.2"/>
  <rect style="fill: none; fill-opacity:0; stroke-width: 0.1; stroke: #e03434" x="-1.05" y="-4.375" width="49.75" height="41.2"/>
  <rect style="fill: #ffffff" x="0.95" y="-2.475" width="30.6" height="37.5"/>
  <rect style="fill: none; fill-opacity:0; stroke-width: 0.1; stroke: #e03434" x="0.95" y="-2.475" width="30.6" height="37.5"/>
  <rect style="fill: #ffffff" x="3.65" y="4.9" width="10.9" height="11.9"/>
  <rect style="fill: none; fill-opacity:0; stroke-width: 0.1; stroke: #e03434" x="3.65" y="4.9" width="10.9" height="11.9"/>
  <text style="fill: #000000; text-anchor:start; font-size: 0.8; font-family: sans; font-style: normal; font-weight: normal" x="3.45" y="11.075"></text>
  <text style="fill: #000000; text-anchor:start; font-size: 0.8; font-family: sans; font-style: normal; font-weight: normal" x="6.2" y="5.7"></text>
  <rect style="fill: #ffffff" x="4.8" y="11.1" width="8.75" height="4.65"/>
  <rect style="fill: none; fill-opacity:0; stroke-width: 0.1; stroke: #e03434" x="4.8" y="11.1" width="8.75" height="4.65"/>
  <text style="fill: #000000; text-anchor:start; font-size: 1.3; font-family: sans; font-style: normal; font-weight: normal" x="5.45" y="12.7">dataObjectPointer</text>
  <text style="fill: #000000; text-anchor:start; font-size: 0.8; font-family: sans; font-style: normal; font-weight: normal" x="9.4" y="24.2"></text>
  <text style="fill: #000000; text-anchor:start; font-size: 1; font-family: sans; font-style: normal; font-weight: normal" x="6.7" y="14.25">@dataObjectID</text>
  <text style="fill: #000000; text-anchor:start; font-size: 1.3; font-family: sans; font-style: normal; font-weight: normal" x="6.8" y="6.5">contentUnit</text>
  <text style="fill: #000000; text-anchor:start; font-size: 1; font-family: sans; font-style: normal; font-weight: normal" x="7.6" y="9.6">@repID</text>
  <rect style="fill: #ffffff" x="17.35" y="11.55" width="11.15" height="8.1"/>
  <rect style="fill: none; fill-opacity:0; stroke-width: 0.1; stroke: #e03434" x="17.35" y="11.55" width="11.15" height="8.1"/>
  <rect style="fill: #ffffff" x="17.4" y="21.3" width="11.1" height="12.35"/>
  <rect style="fill: none; fill-opacity:0; stroke-width: 0.1; stroke: #e03434" x="17.4" y="21.3" width="11.1" height="12.35"/>
  <text style="fill: #000000; text-anchor:start; font-size: 1.3; font-family: sans; font-style: normal; font-weight: normal" x="19.6" y="13">metadataObject</text>
  <text style="fill: #000000; text-anchor:start; font-size: 1.3; font-family: sans; font-style: normal; font-weight: normal" x="20.65" y="23">dataObject</text>
  <text style="fill: #000000; text-anchor:start; font-size: 1; font-family: sans; font-style: normal; font-weight: normal" x="22.3" y="14.6">@ID</text>
  <rect style="fill: #ffffff" x="18.35" y="15.5" width="9.1" height="3.3"/>
  <rect style="fill: none; fill-opacity:0; stroke-width: 0.1; stroke: #e03434" x="18.35" y="15.5" width="9.1" height="3.3"/>
  <text style="fill: #000000; text-anchor:start; font-size: 1; font-family: sans; font-style: normal; font-weight: normal" x="21" y="18.15">@xlink:href</text>
  <rect style="fill: #ffffff" x="18.4" y="27.05" width="9.1" height="5.85"/>
  <rect style="fill: none; fill-opacity:0; stroke-width: 0.1; stroke: #e03434" x="18.4" y="27.05" width="9.1" height="5.85"/>
  <text style="fill: #000000; text-anchor:start; font-size: 1; font-family: sans; font-style: normal; font-weight: normal" x="22.05" y="25.2">@ID</text>
  <text style="fill: #000000; text-anchor:start; font-size: 1; font-family: sans; font-style: normal; font-weight: normal" x="22.05" y="26.2">@repID</text>
  <text style="fill: #000000; text-anchor:start; font-size: 1.3; font-family: sans; font-style: normal; font-weight: normal" x="20.65" y="28.4">byteStream</text>
  <rect style="fill: #ffffff" x="19.45" y="29.05" width="7.05" height="3.2"/>
  <rect style="fill: none; fill-opacity:0; stroke-width: 0.1; stroke: #e03434" x="19.45" y="29.05" width="7.05" height="3.2"/>
  <text style="fill: #000000; text-anchor:start; font-size: 1.3; font-family: sans; font-style: normal; font-weight: normal" x="20.9" y="30.2">fileLocation</text>
  <text style="fill: #000000; text-anchor:start; font-size: 1; font-family: sans; font-style: normal; font-weight: normal" x="21.3" y="31.65">@xlink:href</text>
  <rect style="fill: #ffffff" x="34.1" y="26.9733" width="7.29875" height="6.44007"/>
  <ellipse style="fill: #ffffff" cx="37.7494" cy="33.4134" rx="3.64938" ry="1.07335"/>
  <ellipse style="fill: #ffffff" cx="37.7494" cy="26.9733" rx="3.64938" ry="1.07335"/>
  <ellipse style="fill: none; fill-opacity:0; stroke-width: 0.1; stroke: #e03434" cx="37.7494" cy="26.9733" rx="3.64938" ry="1.07335"/>
  <path style="fill: none; fill-opacity:0; stroke-width: 0.1; stroke: #e03434" d="M 41.3988 26.9733 L 41.3988,33.4134 C 41.3988,34.0062 39.7649,34.4868 37.7494,34.4868 C 35.7339,34.4868 34.1,34.0062 34.1,33.4134 L 34.1,26.9733"/>
  <text style="fill: #000000; text-anchor:end; font-size: 1.5; font-family: sans; font-style: normal; font-weight: normal" x="46.9801" y="35.6868">measurement.dat</text>
  <rect style="fill: #ffffff" x="34.17" y="15.1933" width="7.29875" height="6.44007"/>
  <ellipse style="fill: #ffffff" cx="37.8194" cy="21.6334" rx="3.64938" ry="1.07335"/>
  <ellipse style="fill: #ffffff" cx="37.8194" cy="15.1933" rx="3.64938" ry="1.07335"/>
  <ellipse style="fill: none; fill-opacity:0; stroke-width: 0.1; stroke: #e03434" cx="37.8194" cy="15.1933" rx="3.64938" ry="1.07335"/>
  <path style="fill: none; fill-opacity:0; stroke-width: 0.1; stroke: #e03434" d="M 41.4688 15.1933 L 41.4688,21.6334 C 41.4688,22.2262 39.8349,22.7068 37.8194,22.7068 C 35.8039,22.7068 34.17,22.2262 34.17,21.6334 L 34.17,15.1933"/>
  <text style="fill: #000000; text-anchor:end; font-size: 1.5; font-family: sans; font-style: normal; font-weight: normal" x="47.0501" y="23.9068">measurement.xsd</text>
  <path style="fill: none; fill-opacity:0; stroke-width: 0.1; stroke: #e03434" d="M 12 13.975 C 15.6354,13.975 17.8646,24.825 21.0132,24.825"/>
  <polygon style="fill: #e03434" points="21.3882,24.825 20.8882,25.075 21.0132,24.825 20.8882,24.575 "/>
  <polygon style="fill: none; fill-opacity:0; stroke-width: 0.1; stroke: #e03434" points="21.3882,24.825 20.8882,25.075 21.0132,24.825 20.8882,24.575 "/>
  <path style="fill: none; fill-opacity:0; stroke-width: 0.1; stroke: #e03434" d="M 25.35 31.375 C 28.1056,31.375 31.3444,26.975 33.6132,26.975"/>
  <polygon style="fill: #e03434" points="33.9882,26.975 33.4882,27.225 33.6132,26.975 33.4882,26.725 "/>
  <polygon style="fill: none; fill-opacity:0; stroke-width: 0.1; stroke: #e03434" points="33.9882,26.975 33.4882,27.225 33.6132,26.975 33.4882,26.725 "/>
  <path style="fill: none; fill-opacity:0; stroke-width: 0.1; stroke: #e03434" d="M 26.15 18.05 C 28.7562,18.05 31.4938,15.325 33.6132,15.325"/>
  <polygon style="fill: #e03434" points="33.9882,15.325 33.4882,15.575 33.6132,15.325 33.4882,15.075 "/>
  <polygon style="fill: none; fill-opacity:0; stroke-width: 0.1; stroke: #e03434" points="33.9882,15.325 33.4882,15.575 33.6132,15.325 33.4882,15.075 "/>
  <text style="fill: #000000; text-anchor:start; font-size: 2; font-family: sans; font-style: normal; font-weight: normal" x="11.1" y="-0.275">MANIFEST FILE</text>
  <rect style="fill: #ffffff" x="34" y="3.16335" width="7.29875" height="6.44007"/>
  <ellipse style="fill: #ffffff" cx="37.6494" cy="9.60342" rx="3.64938" ry="1.07335"/>
  <ellipse style="fill: #ffffff" cx="37.6494" cy="3.16335" rx="3.64938" ry="1.07335"/>
  <ellipse style="fill: none; fill-opacity:0; stroke-width: 0.1; stroke: #e03434" cx="37.6494" cy="3.16335" rx="3.64938" ry="1.07335"/>
  <path style="fill: none; fill-opacity:0; stroke-width: 0.1; stroke: #e03434" d="M 41.2987 3.16335 L 41.2987,9.60342 C 41.2987,10.1962 39.6649,10.6768 37.6494,10.6768 C 35.6339,10.6768 34,10.1962 34,9.60342 L 34,3.16335"/>
  <text style="fill: #000000; text-anchor:end; font-size: 1.5; font-family: sans; font-style: normal; font-weight: normal" x="46.8801" y="11.8768">includedMeasurement.xsd</text>
  <rect style="fill: #ffffff" x="17.3" y="1.565" width="11.14" height="8.1"/>
  <rect style="fill: none; fill-opacity:0; stroke-width: 0.1; stroke: #e03434" x="17.3" y="1.565" width="11.14" height="8.1"/>
  <text style="fill: #000000; text-anchor:start; font-size: 1.3; font-family: sans; font-style: normal; font-weight: normal" x="19.39" y="3.065">metadataObject</text>
  <text style="fill: #000000; text-anchor:start; font-size: 1; font-family: sans; font-style: normal; font-weight: normal" x="22.19" y="4.365">@ID</text>
  <rect style="fill: #ffffff" x="18.4" y="5.465" width="9.15" height="3.3"/>
  <rect style="fill: none; fill-opacity:0; stroke-width: 0.1; stroke: #e03434" x="18.4" y="5.465" width="9.15" height="3.3"/>
  <text style="fill: #000000; text-anchor:start; font-size: 1.3; font-family: sans; font-style: normal; font-weight: normal" x="18.79" y="6.765">metadataReference</text>
  <text style="fill: #000000; text-anchor:start; font-size: 1; font-family: sans; font-style: normal; font-weight: normal" x="21.24" y="7.965">@xlink:href</text>
  <text style="fill: #000000; text-anchor:start; font-size: 1; font-family: sans; font-style: normal; font-weight: normal" x="7.59" y="8.265">@dmdID</text>
  <path style="fill: none; fill-opacity:0; stroke-width: 0.1; stroke: #e03434" d="M 11.2 8.025 C 15.2172,8.025 17.3328,4.075 20.8632,4.075"/>
  <polygon style="fill: #e03434" points="21.2382,4.075 20.7382,4.325 20.8632,4.075 20.7382,3.825 "/>
  <polygon style="fill: none; fill-opacity:0; stroke-width: 0.1; stroke: #e03434" points="21.2382,4.075 20.7382,4.325 20.8632,4.075 20.7382,3.825 "/>
  <path style="fill: none; fill-opacity:0; stroke-width: 0.1; stroke: #e03434" d="M 25.85 8.025 C 28.506,8.025 31.244,3.275 33.4132,3.275"/>
  <polygon style="fill: #e03434" points="33.7882,3.275 33.2882,3.525 33.4132,3.275 33.2882,3.025 "/>
  <polygon style="fill: none; fill-opacity:0; stroke-width: 0.1; stroke: #e03434" points="33.7882,3.275 33.2882,3.525 33.4132,3.275 33.2882,3.025 "/>
  <path style="fill: none; fill-opacity:0; stroke-width: 0.1; stroke: #e03434" d="M 11.1 9.225 C 15.2168,9.225 17.6832,14.325 21.3132,14.325"/>
  <polygon style="fill: #e03434" points="21.6882,14.325 21.1882,14.575 21.3132,14.325 21.1882,14.075 "/>
  <polygon style="fill: none; fill-opacity:0; stroke-width: 0.1; stroke: #e03434" points="21.6882,14.325 21.1882,14.575 21.3132,14.325 21.1882,14.075 "/>
  <path style="fill: none; fill-opacity:0; stroke-width: 0.1; stroke: #e03434" d="M 25 25.775 C 28.15,26.025 33.3,14.425 24.6868,14.3303"/>
  <polygon style="fill: #e03434" points="24.3118,14.3262 24.8145,14.0817 24.6868,14.3303 24.809,14.5817 "/>
  <polygon style="fill: none; fill-opacity:0; stroke-width: 0.1; stroke: #e03434" points="24.3118,14.3262 24.8145,14.0817 24.6868,14.3303 24.809,14.5817 "/>
  <path style="fill: none; fill-opacity:0; stroke-width: 0.1; stroke: #e03434" d="M 25 25.825 C 29.7,25.975 35.7,4.925 24.9359,4.25523"/>
  <polygon style="fill: #e03434" points="24.5616,4.23194 25.0761,4.01348 24.9359,4.25523 25.0451,4.51251 "/>
  <polygon style="fill: none; fill-opacity:0; stroke-width: 0.1; stroke: #e03434" points="24.5616,4.23194 25.0761,4.01348 24.9359,4.25523 25.0451,4.51251 "/>
  <text style="fill: #000000; text-anchor:start; font-size: 1.3; font-family: sans; font-style: normal; font-weight: normal" x="18.675" y="16.715">metadataReference</text>
  <text style="fill: #000000; text-anchor:start; font-size: 1; font-family: sans; font-style: normal; font-weight: normal" x="26.9" y="14.375">1</text>
  <text style="fill: #000000; text-anchor:start; font-size: 1; font-family: sans; font-style: normal; font-weight: normal" x="27" y="4.425">2</text>
</svg>
