<?xml version="1.0" encoding="UTF-8" standalone="no"?>
<!DOCTYPE svg PUBLIC "-//W3C//DTD SVG 1.0//EN" "http://www.w3.org/TR/2001/REC-SVG-20010904/DTD/svg10.dtd">
<!-- Generated by Microsoft Visio 11.0, SVG Export, v1.0 SDF-Markups-4-bis.svg Page-1 -->
<svg xmlns="http://www.w3.org/2000/svg" xmlns:v="http://schemas.microsoft.com/visio/2003/SVGExtensions/" width="4.35071in"
		height="0.817244in" viewBox="0 0 313.251 58.8416" xml:space="preserve" color-interpolation-filters="sRGB" class="st4">
	<v:documentProperties v:langID="1033" v:metric="true" v:viewMarkup="false"/>

	<style type="text/css">
	<![CDATA[
		.st1 {fill:#3366ff;stroke:#000000;stroke-linecap:round;stroke-linejoin:round;stroke-width:0.72}
		.st2 {fill:#f0a028;stroke:#000000;stroke-linecap:round;stroke-linejoin:round;stroke-width:0.72}
		.st3 {fill:#000000;font-family:Arial;font-size:1.00001em;font-weight:bold}
		.st4 {fill:none;fill-rule:evenodd;font-size:12;overflow:visible;stroke-linecap:square;stroke-miterlimit:3}
	]]>
	</style>

	<g v:mID="0" v:index="1" v:groupContext="foregroundPage">
		<title>Page-1</title>
		<v:pageProperties v:drawingScale="0.0393701" v:pageScale="0.0393701" v:drawingUnits="24" v:shadowOffsetX="8.50394"
				v:shadowOffsetY="-8.50394"/>
		<g id="shape14-1" v:mID="14" v:groupContext="shape" transform="translate(0.72,-0.72)">
			<title>Rectangle.14</title>
			<v:userDefs>
				<v:ud v:nameU="visVersion" v:val="VT0(11):26"/>
			</v:userDefs>
			<rect x="0" y="1.44" width="311.811" height="57.4016" class="st1"/>
		</g>
		<g id="shape1-3" v:mID="1" v:groupContext="shape" transform="translate(14.8932,-7.09795)">
			<title>Rounded rectangle</title>
			<desc>Node 1</desc>
			<v:userDefs>
				<v:ud v:nameU="visVersion" v:val="VT0(11):26"/>
			</v:userDefs>
			<v:textBlock v:margins="rect(4,4,4,4)" v:tabSpace="42.5197"/>
			<v:textRect cx="35.4331" cy="36.1644" width="70.87" height="45.3543"/>
			<path d="M56.69 58.84 A14.1733 14.1733 -180 0 0 70.87 44.67 L70.87 27.66 A14.1733 14.1733 -180 0 0 56.69 13.49 L14.17
						 13.49 A14.1733 14.1733 -180 0 0 0 27.66 L0 44.67 A14.1733 14.1733 -180 0 0 14.17 58.84 L56.69 58.84 Z"
					class="st2"/>
			<text x="15.42" y="39.76" class="st3" v:langID="1036"><v:paragraph v:horizAlign="1"/><v:tabList/>Node 1</text>		</g>
		<g id="shape2-6" v:mID="2" v:groupContext="shape" transform="translate(85.7594,-7.09795)">
			<title>Rounded rectangle.2</title>
			<desc>Node 2</desc>
			<v:userDefs>
				<v:ud v:nameU="visVersion" v:val="VT0(11):26"/>
			</v:userDefs>
			<v:textBlock v:margins="rect(4,4,4,4)" v:tabSpace="42.5197"/>
			<v:textRect cx="35.4331" cy="36.1644" width="70.87" height="45.3543"/>
			<path d="M56.69 58.84 A14.1733 14.1733 -180 0 0 70.87 44.67 L70.87 27.66 A14.1733 14.1733 -180 0 0 56.69 13.49 L14.17
						 13.49 A14.1733 14.1733 -180 0 0 0 27.66 L0 44.67 A14.1733 14.1733 -180 0 0 14.17 58.84 L56.69 58.84 Z"
					class="st2"/>
			<text x="15.42" y="39.76" class="st3" v:langID="1036"><v:paragraph v:horizAlign="1"/><v:tabList/>Node 2</text>		</g>
		<g id="shape3-9" v:mID="3" v:groupContext="shape" transform="translate(156.626,-7.09795)">
			<title>Rounded rectangle.3</title>
			<desc>Node ...</desc>
			<v:userDefs>
				<v:ud v:nameU="visVersion" v:val="VT0(11):26"/>
			</v:userDefs>
			<v:textBlock v:margins="rect(4,4,4,4)" v:tabSpace="42.5197"/>
			<v:textRect cx="35.4331" cy="36.1644" width="70.87" height="45.3543"/>
			<path d="M56.69 58.84 A14.1733 14.1733 -180 0 0 70.87 44.67 L70.87 27.66 A14.1733 14.1733 -180 0 0 56.69 13.49 L14.17
						 13.49 A14.1733 14.1733 -180 0 0 0 27.66 L0 44.67 A14.1733 14.1733 -180 0 0 14.17 58.84 L56.69 58.84 Z"
					class="st2"/>
			<text x="13.76" y="39.76" class="st3" v:langID="1036"><v:paragraph v:horizAlign="1"/><v:tabList/>Node ...</text>		</g>
		<g id="shape4-12" v:mID="4" v:groupContext="shape" transform="translate(227.492,-7.09795)">
			<title>Rounded rectangle.4</title>
			<desc>Node n</desc>
			<v:userDefs>
				<v:ud v:nameU="visVersion" v:val="VT0(11):26"/>
			</v:userDefs>
			<v:textBlock v:margins="rect(4,4,4,4)" v:tabSpace="42.5197"/>
			<v:textRect cx="35.4331" cy="36.1644" width="70.87" height="45.3543"/>
			<path d="M56.69 58.84 A14.1733 14.1733 -180 0 0 70.87 44.67 L70.87 27.66 A14.1733 14.1733 -180 0 0 56.69 13.49 L14.17
						 13.49 A14.1733 14.1733 -180 0 0 0 27.66 L0 44.67 A14.1733 14.1733 -180 0 0 14.17 58.84 L56.69 58.84 Z"
					class="st2"/>
			<text x="15.09" y="39.76" class="st3" v:langID="1036"><v:paragraph v:horizAlign="1"/><v:tabList/>Node n</text>		</g>
	</g>
</svg>
